<?xml version="1.0" encoding="UTF-8" standalone="no"?><!DOCTYPE svg PUBLIC "-//W3C//DTD SVG 1.1//EN" "http://www.w3.org/Graphics/SVG/1.1/DTD/svg11.dtd"><svg width="100%" height="100%" viewBox="0 0 768 768" version="1.1" xmlns="http://www.w3.org/2000/svg" xmlns:xlink="http://www.w3.org/1999/xlink" xml:space="preserve" xmlns:serif="http://www.serif.com/" style="fill-rule:evenodd;clip-rule:evenodd;stroke-linejoin:round;stroke-miterlimit:2;"><clipPath id="_clip1"><rect x="189.591" y="413.975" width="500.987" height="262.238"/></clipPath><g clip-path="url(#_clip1)"><path d="M412.39,531.312c11.295,1.444 22.069,1.242 31.687,-2.945c76.925,-33.491 130.764,-110.21 130.764,-199.404c-0,-95.943 -62.294,-177.451 -148.606,-206.25c-16.557,-5.524 -24.022,-20.698 -20.566,-34.298c3.767,-14.819 15.546,-22.951 32.306,-20.908c142.258,17.337 252.603,138.675 252.603,285.582c-0,158.79 -128.917,287.707 -287.706,287.707c-158.79,-0 -287.707,-128.917 -287.707,-287.707c0,-11.981 0.734,-23.792 2.159,-35.39l149.311,5.734c-11.241,20.263 -17.643,43.573 -17.643,68.367c0,77.954 63.289,141.242 141.243,141.242c7.536,0 14.936,-0.591 22.155,-1.73Z" style="fill:url(#_Linear2);"/></g><clipPath id="_clip3"><path d="M214.006,146.739l254.159,-146.739l224.608,389.032l-215.709,121.057l-30.484,3.128l-232.574,-366.478Z"/></clipPath><g clip-path="url(#_clip3)"><path d="M499.978,302.857c-4.397,-10.504 -9.959,-19.734 -18.394,-25.97c-67.466,-49.873 -160.826,-58.139 -238.071,-13.542c-83.089,47.971 -122.53,142.673 -104.314,231.821c3.494,17.101 -5.915,31.153 -19.421,34.959c-14.717,4.148 -27.649,-1.987 -34.26,-17.523c-56.114,-131.868 -6.205,-288.098 121.02,-361.552c137.516,-79.395 313.62,-32.208 393.015,105.308c79.394,137.516 32.208,313.62 -105.308,393.014c-10.376,5.991 -20.971,11.261 -31.728,15.826l-69.69,-132.174c23.168,-0.397 46.557,-6.508 68.029,-18.904c67.51,-38.977 90.675,-125.431 51.698,-192.941c-3.768,-6.527 -7.98,-12.64 -12.576,-18.322Z" style="fill:url(#_Linear4);"/></g><clipPath id="_clip5"><path d="M299.398,627.594l-246.102,-142.087l190.237,-329.502l224.724,104.114l-168.859,367.475Z"/></clipPath><g clip-path="url(#_clip5)"><path d="M258.336,341.231c-6.898,9.059 -12.111,18.491 -13.293,28.914c-9.459,83.364 30.062,168.35 107.307,212.947c83.089,47.971 184.823,34.778 252.92,-25.572c13.063,-11.576 29.936,-10.454 39.986,-0.66c10.951,10.67 12.103,24.937 1.954,38.431c-86.143,114.53 -246.397,149.423 -373.623,75.969c-137.515,-79.394 -184.702,-255.498 -105.308,-393.014c79.395,-137.516 255.499,-184.703 393.015,-105.308c10.376,5.991 20.237,12.532 29.569,19.565l-79.621,126.44c-11.928,-19.866 -28.914,-37.066 -50.386,-49.463c-67.51,-38.977 -153.964,-15.811 -192.941,51.699c-3.768,6.527 -6.956,13.231 -9.579,20.052Z" style="fill:url(#_Linear6);"/></g><clipPath id="_clip7"><rect x="390.235" y="67.196" width="300.343" height="460.759"/></clipPath><g clip-path="url(#_clip7)"><path d="M412.39,531.312c11.295,1.444 22.069,1.242 31.687,-2.945c76.925,-33.491 130.764,-110.21 130.764,-199.404c-0,-95.943 -62.294,-177.451 -148.606,-206.25c-16.557,-5.524 -24.022,-20.698 -20.566,-34.298c3.767,-14.819 15.546,-22.951 32.306,-20.908c142.258,17.337 252.603,138.675 252.603,285.582c-0,158.79 -128.917,287.707 -287.706,287.707c-158.79,-0 -287.707,-128.917 -287.707,-287.707c0,-11.981 0.734,-23.792 2.159,-35.39l149.311,5.734c-11.241,20.263 -17.643,43.573 -17.643,68.367c0,77.954 63.289,141.242 141.243,141.242c7.536,0 14.936,-0.591 22.155,-1.73Z" style="fill:url(#_Linear8);"/></g><clipPath id="_clip9"><path d="M-41.053,293.997l408.062,-235.594l153.212,265.371l-408.062,235.594l-153.212,-265.371Z"/></clipPath><g clip-path="url(#_clip9)"><path d="M499.978,302.857c-4.397,-10.504 -9.959,-19.734 -18.394,-25.97c-67.466,-49.873 -160.826,-58.139 -238.071,-13.542c-83.089,47.971 -122.53,142.673 -104.314,231.821c3.494,17.101 -5.915,31.153 -19.421,34.959c-14.717,4.148 -27.649,-1.987 -34.26,-17.523c-56.114,-131.868 -6.205,-288.098 121.02,-361.552c137.516,-79.395 313.62,-32.208 393.015,105.308c79.394,137.516 32.208,313.62 -105.308,393.014c-10.376,5.991 -20.971,11.261 -31.728,15.826l-69.69,-132.174c23.168,-0.397 46.557,-6.508 68.029,-18.904c67.51,-38.977 90.675,-125.431 51.698,-192.941c-3.768,-6.527 -7.98,-12.64 -12.576,-18.322Z" style="fill:url(#_Linear10);"/></g><clipPath id="_clip11"><path d="M521.178,814.207l-406.013,-234.412l158.925,-275.266l406.013,234.412l-158.925,275.266Z"/></clipPath><g clip-path="url(#_clip11)"><path d="M258.336,341.231c-6.898,9.059 -12.111,18.491 -13.293,28.914c-9.459,83.364 30.062,168.35 107.307,212.947c83.089,47.971 184.823,34.778 252.92,-25.572c13.063,-11.576 29.936,-10.454 39.986,-0.66c10.951,10.67 12.103,24.937 1.954,38.431c-86.143,114.53 -246.397,149.423 -373.623,75.969c-137.515,-79.394 -184.702,-255.498 -105.308,-393.014c79.395,-137.516 255.499,-184.703 393.015,-105.308c10.376,5.991 20.237,12.532 29.569,19.565l-79.621,126.44c-11.928,-19.866 -28.914,-37.066 -50.386,-49.463c-67.51,-38.977 -153.964,-15.811 -192.941,51.699c-3.768,6.527 -6.956,13.231 -9.579,20.052Z" style="fill:url(#_Linear12);"/></g><circle cx="390.235" cy="391.8" r="147.141" style="fill:#fff;"/><circle cx="390.235" cy="391.8" r="93.707" style="fill:#2f6397;"/><defs><linearGradient id="_Linear2" x1="0" y1="0" x2="1" y2="0" gradientUnits="userSpaceOnUse" gradientTransform="matrix(-74.5964,286.771,-286.771,-74.5964,623.95,264.88)"><stop offset="0" style="stop-color:#71d0fa;stop-opacity:1"/><stop offset="1" style="stop-color:#35abde;stop-opacity:1"/></linearGradient><linearGradient id="_Linear4" x1="0" y1="0" x2="1" y2="0" gradientUnits="userSpaceOnUse" gradientTransform="matrix(285.649,-78.783,78.783,285.649,163.461,252.856)"><stop offset="0" style="stop-color:#71d0fa;stop-opacity:1"/><stop offset="1" style="stop-color:#35abde;stop-opacity:1"/></linearGradient><linearGradient id="_Linear6" x1="0" y1="0" x2="1" y2="0" gradientUnits="userSpaceOnUse" gradientTransform="matrix(-211.053,-207.988,207.988,-211.053,383.293,657.664)"><stop offset="0" style="stop-color:#71d0fa;stop-opacity:1"/><stop offset="1" style="stop-color:#35abde;stop-opacity:1"/></linearGradient><linearGradient id="_Linear8" x1="0" y1="0" x2="1" y2="0" gradientUnits="userSpaceOnUse" gradientTransform="matrix(-74.5964,286.771,-286.771,-74.5964,623.95,264.88)"><stop offset="0" style="stop-color:#71d0fa;stop-opacity:1"/><stop offset="1" style="stop-color:#35abde;stop-opacity:1"/></linearGradient><linearGradient id="_Linear10" x1="0" y1="0" x2="1" y2="0" gradientUnits="userSpaceOnUse" gradientTransform="matrix(285.649,-78.783,78.783,285.649,163.461,252.856)"><stop offset="0" style="stop-color:#71d0fa;stop-opacity:1"/><stop offset="1" style="stop-color:#35abde;stop-opacity:1"/></linearGradient><linearGradient id="_Linear12" x1="0" y1="0" x2="1" y2="0" gradientUnits="userSpaceOnUse" gradientTransform="matrix(-211.053,-207.988,207.988,-211.053,383.293,657.664)"><stop offset="0" style="stop-color:#71d0fa;stop-opacity:1"/><stop offset="1" style="stop-color:#35abde;stop-opacity:1"/></linearGradient></defs></svg>